<?xml version="1.0" standalone="no"?><!DOCTYPE svg PUBLIC "-//W3C//DTD SVG 1.1//EN" "http://www.w3.org/Graphics/SVG/1.1/DTD/svg11.dtd"><svg t="1731513524008" class="icon" viewBox="0 0 1024 1024" version="1.1" xmlns="http://www.w3.org/2000/svg" p-id="10678" xmlns:xlink="http://www.w3.org/1999/xlink" width="256" height="256"><path d="M672.421274 486.386519c58.776198-47.452343 96.52238-120.248552 96.522381-201.672459 0-142.896261-115.934702-258.830964-258.830964-258.830964s-258.830964 115.934702-258.830964 258.830964c0 81.423907 37.746182 154.220116 96.52238 201.672459 50.68773-18.873091 105.150079-29.118483 162.308584-29.118483s112.160084 10.784623 162.308583 29.118483zM688.59821 551.09426c-44.216956 36.128489-117.013165 57.158504-178.485519 57.158505s-128.876251-21.569247-173.093207-57.158505C157.994734 617.419695 40.981569 789.434439 40.981569 991.64613h938.262244c0-202.21169-111.620853-374.226435-290.645603-440.55187z" p-id="10679" fill="#ffffff"></path><path d="M672.421274 486.386519c-50.68773-18.873091-105.150079-29.118483-162.308583-29.118483s-111.620853 10.245392-162.308584 29.118483c44.216956 36.128489 100.83623 57.158504 162.308584 57.158505s118.091627-21.030016 162.308583-57.158505z" p-id="10680" fill="#ffffff"></path></svg>